<?xml version="1.0" encoding="UTF-8" standalone="no"?>
<!-- Created with Inkscape (http://www.inkscape.org/) -->

<svg
   xmlns:dc="http://purl.org/dc/elements/1.1/"
   xmlns:cc="http://creativecommons.org/ns#"
   xmlns:rdf="http://www.w3.org/1999/02/22-rdf-syntax-ns#"
   xmlns:svg="http://www.w3.org/2000/svg"
   xmlns="http://www.w3.org/2000/svg"
   xmlns:sodipodi="http://sodipodi.sourceforge.net/DTD/sodipodi-0.dtd"
   xmlns:inkscape="http://www.inkscape.org/namespaces/inkscape"
   id="svg2985"
   version="1.1"
   inkscape:version="0.48.2 r9819"
   width="1000"
   height="520.82397"
   xml:space="preserve"
   sodipodi:docname="GMG.svg"><metadata
     id="metadata2991"><rdf:RDF><cc:Work
         rdf:about=""><dc:format>image/svg+xml</dc:format><dc:type
           rdf:resource="http://purl.org/dc/dcmitype/StillImage" /><dc:title></dc:title></cc:Work></rdf:RDF></metadata><defs
     id="defs2989"><clipPath
       clipPathUnits="userSpaceOnUse"
       id="clipPath3001"><path
         d="M 0,841 595,841 595,0 0,0 0,841 z"
         id="path3003"
         inkscape:connector-curvature="0" /></clipPath><clipPath
       clipPathUnits="userSpaceOnUse"
       id="clipPath3007"><path
         d="m 0,841.02 594.96,0 0,-840.96 L 0,0.06 0,841.02 z"
         id="path3009"
         inkscape:connector-curvature="0" /></clipPath><clipPath
       clipPathUnits="userSpaceOnUse"
       id="clipPath3017"><path
         d="m -18.02,-187.09 626.406,0 0,948.44 -626.406,0 0,-948.44 z"
         id="path3019"
         inkscape:connector-curvature="0" /></clipPath><clipPath
       clipPathUnits="userSpaceOnUse"
       id="clipPath3023"><path
         d="m 0.28,777.27 603.78,0 0,-354.64 -603.78,0 0,354.64 z"
         clip-rule="evenodd"
         id="path3025"
         inkscape:connector-curvature="0" /></clipPath><clipPath
       clipPathUnits="userSpaceOnUse"
       id="clipPath3029"><path
         d="M 0,841 595,841 595,0 0,0 0,841 z"
         id="path3031"
         inkscape:connector-curvature="0" /></clipPath><clipPath
       clipPathUnits="userSpaceOnUse"
       id="clipPath3035"><path
         d="m 0,841.02 594.96,0 0,-840.96 L 0,0.06 0,841.02 z"
         id="path3037"
         inkscape:connector-curvature="0" /></clipPath><clipPath
       clipPathUnits="userSpaceOnUse"
       id="clipPath3051"><path
         d="m 270.902,604.915 c 0,63.108 -12.843,97.328 -32.485,97.328 -19.644,0 -32.491,-34.22 -32.491,-97.328 0,-71.994 12.847,-106.213 32.491,-106.213 19.642,0 32.485,34.219 32.485,106.213 z m -142.414,0.89 c 0,71.105 33.245,155.545 109.929,155.545 76.684,0 109.296,-84.44 109.296,-154.657 0,-101.769 -44.7,-167.096 -109.296,-167.096 -63.842,0 -109.929,65.327 -109.929,166.208"
         id="path3053"
         inkscape:connector-curvature="0" /></clipPath><clipPath
       clipPathUnits="userSpaceOnUse"
       id="clipPath3061"><path
         d="m 412.685,604.915 c 0,63.108 -12.842,97.328 -32.486,97.328 -19.643,0 -32.49,-34.22 -32.49,-97.328 0,-71.994 12.847,-106.213 32.49,-106.213 19.644,0 32.486,34.219 32.486,106.213 z m -141.784,0.89 c 0,71.105 32.614,155.545 109.298,155.545 76.686,0 109.927,-84.44 109.927,-154.657 0,-101.769 -45.33,-167.096 -109.927,-167.096 -63.842,0 -109.298,65.327 -109.298,166.208"
         id="path3063"
         inkscape:connector-curvature="0" /></clipPath><clipPath
       clipPathUnits="userSpaceOnUse"
       id="clipPath3071"><path
         d="m 412.685,604.915 c 0,63.108 -12.842,97.328 -32.486,97.328 -19.643,0 -32.49,-34.22 -32.49,-97.328 0,-71.994 12.847,-106.213 32.49,-106.213 19.644,0 32.486,34.219 32.486,106.213 z M 380.199,761.35 c 76.686,0 109.927,-84.44 109.927,-154.657 0,-101.769 -45.33,-167.096 -109.927,-167.096"
         id="path3073"
         inkscape:connector-curvature="0" /></clipPath><clipPath
       clipPathUnits="userSpaceOnUse"
       id="clipPath3081"><path
         d="M 0,841 595,841 595,0 0,0 0,841 z"
         id="path3083"
         inkscape:connector-curvature="0" /></clipPath><clipPath
       clipPathUnits="userSpaceOnUse"
       id="clipPath3087"><path
         d="m 0,841.02 594.96,0 0,-840.96 L 0,0.06 0,841.02 z"
         id="path3089"
         inkscape:connector-curvature="0" /></clipPath><clipPath
       clipPathUnits="userSpaceOnUse"
       id="clipPath3145"><path
         d="m 402.59,55.98 120.211,0 0,49.43 -120.211,0 0,-49.43 z"
         id="path3147"
         inkscape:connector-curvature="0" /></clipPath><clipPath
       clipPathUnits="userSpaceOnUse"
       id="clipPath3359"><path
         inkscape:connector-curvature="0"
         d="m 447.874,751.824 107.716,0 0,56.05 -107.716,0 0,-56.05 z"
         id="path3361" /></clipPath></defs><sodipodi:namedview
     pagecolor="#ffffff"
     bordercolor="#666666"
     borderopacity="1"
     objecttolerance="10"
     gridtolerance="10"
     guidetolerance="10"
     inkscape:pageopacity="0"
     inkscape:pageshadow="2"
     inkscape:window-width="1179"
     inkscape:window-height="1029"
     id="namedview2987"
     showgrid="false"
     fit-margin-left="0.5"
     fit-margin-bottom="0.5"
     fit-margin-top="0.5"
     fit-margin-right="0.5"
     inkscape:zoom="0.27578005"
     inkscape:cx="438.24949"
     inkscape:cy="-55.730303"
     inkscape:window-x="728"
     inkscape:window-y="-16"
     inkscape:window-maximized="0"
     inkscape:current-layer="g2993" /><g
     id="g2993"
     inkscape:groupmode="layer"
     inkscape:label="GMGAR05"
     transform="matrix(1.25,0,0,-1.25,-1181.8871,808.59363)"><g
       id="g3355"
       transform="matrix(7.4195106,0,0,7.4195106,-2377.0962,-5347.5548)"><g
         id="g3357"
         clip-path="url(#clipPath3359)"><g
           id="g3363"
           transform="translate(481.1673,804.787)"><path
             d="m 0,0 c 0,2.093 1.323,2.783 2.653,2.783 0.692,0 1.192,-0.09 1.523,-0.189 l 0.062,-1.297 -0.353,0 -0.324,0.857 C 3.33,2.275 3.007,2.358 2.577,2.358 1.407,2.358 0.815,1.54 0.815,0.152 c 0,-1.539 0.515,-2.373 1.784,-2.373 0.378,0 0.639,0.068 0.847,0.136 l 0,1.471 -0.709,0.129 0,0.311 2.047,0 0,-0.311 -0.569,-0.129 0,-1.812 C 3.776,-2.578 3.253,-2.662 2.653,-2.662 1,-2.662 0,-1.903 0,0"
             style="fill:#2d2c2e;fill-opacity:1;fill-rule:nonzero;stroke:none"
             id="path3365"
             inkscape:connector-curvature="0" /></g><g
           id="g3367"
           transform="translate(486.4908,803.2858)"><path
             d="m 0,0 0,2.351 -0.585,0.121 0,0.289 1.2,0.12 0.084,-0.045 0,-2.661 c 0,-0.546 0.145,-0.811 0.762,-0.811 0.484,0 0.738,0.12 0.968,0.219 l 0,2.768 -0.561,0.121 0,0.289 1.185,0.12 0.084,-0.045 0,-3.42 0.578,-0.121 0,-0.257 -1.155,-0.175 -0.084,0.037 0,0.425 -0.047,0 C 2.106,-0.962 1.669,-1.137 1.121,-1.137 0.331,-1.137 0,-0.697 0,0"
             style="fill:#2d2c2e;fill-opacity:1;fill-rule:nonzero;stroke:none"
             id="path3369"
             inkscape:connector-curvature="0" /></g><g
           id="g3371"
           transform="translate(492.6962,802.8764)"><path
             d="M 0,0 0,1.115 -0.785,1.054 c -0.538,-0.046 -0.706,-0.28 -0.706,-0.667 0,-0.402 0.23,-0.667 0.731,-0.667 0.313,0 0.614,0.151 0.76,0.28 m -2.214,0.311 c 0,0.675 0.491,0.903 1.207,1.046 L 0,1.562 0,1.971 c 0,0.608 -0.099,0.82 -0.884,0.82 -0.316,0 -0.762,-0.046 -1,-0.084 l 0,0.326 c 0.299,0.129 0.853,0.281 1.346,0.281 0.854,0 1.246,-0.365 1.246,-1.145 l 0,-2.237 c 0,-0.243 0.138,-0.288 0.368,-0.288 l 0.193,0 0,-0.258 C 1.177,-0.659 0.923,-0.728 0.646,-0.728 c -0.308,0 -0.515,0.114 -0.57,0.402 l -0.044,0 c -0.209,-0.219 -0.54,-0.425 -1.047,-0.425 -0.7,0 -1.199,0.403 -1.199,1.062"
             style="fill:#2d2c2e;fill-opacity:1;fill-rule:nonzero;stroke:none"
             id="path3373"
             inkscape:connector-curvature="0" /></g><g
           id="g3375"
           transform="translate(494.26559,802.4823)"><path
             d="m 0,0 0.578,0.121 0,2.98 L 0,3.222 0,3.511 1.161,3.693 1.246,3.647 l 0,-0.493 0.045,0 c 0.224,0.265 0.585,0.554 1.017,0.554 0.069,0 0.175,-0.015 0.214,-0.031 l 0,-0.606 c -0.1,0.015 -0.231,0.022 -0.3,0.022 -0.368,0 -0.684,-0.098 -0.938,-0.265 l 0,-2.707 L 1.916,0 1.916,-0.258 0,-0.258 0,0 z"
             style="fill:#2d2c2e;fill-opacity:1;fill-rule:nonzero;stroke:none"
             id="path3377"
             inkscape:connector-curvature="0" /></g><g
           id="g3379"
           transform="translate(499.64909,802.88409)"><path
             d="m 0,0 0,2.654 c -0.17,0.114 -0.355,0.243 -0.817,0.243 -0.714,0 -1.214,-0.372 -1.214,-1.615 0,-1.085 0.432,-1.502 1.162,-1.502 0.361,0 0.692,0.129 0.869,0.22 m -2.755,1.19 c 0,1.441 0.808,2.116 2.024,2.116 0.307,0 0.516,-0.045 0.731,-0.106 l 0,1.206 -0.632,0.121 0,0.288 1.246,0.175 0.092,-0.039 0,-5.133 0.577,-0.122 0,-0.257 -1.152,-0.174 -0.086,0.037 0,0.394 -0.045,0 c -0.207,-0.257 -0.562,-0.446 -1.086,-0.446 -0.738,0 -1.669,0.439 -1.669,1.94"
             style="fill:#2d2c2e;fill-opacity:1;fill-rule:nonzero;stroke:none"
             id="path3381"
             inkscape:connector-curvature="0" /></g><g
           id="g3383"
           transform="translate(501.70261,807.2368)"><path
             d="M 0,0 C 0,0.234 0.2,0.424 0.437,0.424 0.684,0.424 0.876,0.234 0.876,0 0.876,-0.221 0.684,-0.425 0.437,-0.425 0.2,-0.425 0,-0.221 0,0 m -0.454,-4.755 0.57,0.122 0,2.979 -0.617,0.122 0,0.288 1.239,0.183 0.084,-0.046 0,-3.526 0.577,-0.122 0,-0.257 -1.853,0 0,0.257 z"
             style="fill:#2d2c2e;fill-opacity:1;fill-rule:nonzero;stroke:none"
             id="path3385"
             inkscape:connector-curvature="0" /></g><g
           id="g3387"
           transform="translate(505.54781,802.8764)"><path
             d="M 0,0 0,1.115 -0.785,1.054 c -0.538,-0.046 -0.706,-0.28 -0.706,-0.667 0,-0.402 0.23,-0.667 0.731,-0.667 0.313,0 0.614,0.151 0.76,0.28 m -2.214,0.311 c 0,0.675 0.491,0.903 1.207,1.046 L 0,1.562 0,1.971 c 0,0.608 -0.099,0.82 -0.884,0.82 -0.316,0 -0.762,-0.046 -0.999,-0.084 l 0,0.326 c 0.298,0.129 0.852,0.281 1.345,0.281 0.854,0 1.246,-0.365 1.246,-1.145 l 0,-2.237 c 0,-0.243 0.138,-0.288 0.368,-0.288 l 0.193,0 0,-0.258 C 1.177,-0.659 0.923,-0.728 0.646,-0.728 c -0.308,0 -0.515,0.114 -0.569,0.402 l -0.045,0 c -0.209,-0.219 -0.54,-0.425 -1.047,-0.425 -0.7,0 -1.199,0.403 -1.199,1.062"
             style="fill:#2d2c2e;fill-opacity:1;fill-rule:nonzero;stroke:none"
             id="path3389"
             inkscape:connector-curvature="0" /></g><g
           id="g3391"
           transform="translate(507.1864,802.4823)"><path
             d="m 0,0 0.578,0.121 0,2.98 L 0,3.222 0,3.511 1.161,3.693 1.246,3.647 l 0,-0.341 0.045,0 c 0.386,0.22 0.847,0.402 1.323,0.402 0.731,0 1.108,-0.273 1.108,-1.039 l 0,-2.548 L 4.3,0 l 0,-0.258 -1.846,0 0,0.258 0.56,0.121 0,2.366 C 3.014,3.018 2.738,3.17 2.192,3.17 1.868,3.17 1.577,3.093 1.284,2.995 l 0,-2.874 L 1.846,0 1.846,-0.258 0,-0.258 0,0 z"
             style="fill:#2d2c2e;fill-opacity:1;fill-rule:nonzero;stroke:none"
             id="path3393"
             inkscape:connector-curvature="0" /></g><g
           id="g3395"
           transform="translate(513.4389,802.528)"><path
             d="m 0,0 0.676,0.144 0,4.36 L 0,4.641 l 0,0.311 1.799,0 1.308,-3.852 0.03,0 1.332,3.852 1.869,0 0,-0.311 -0.738,-0.137 0,-4.353 0.738,-0.143 0,-0.312 -2.078,0 0,0.312 0.585,0.143 0,4.254 -0.023,0 -1.584,-4.451 -0.469,0 -1.531,4.451 -0.024,0 0,-4.254 0.6,-0.143 0,-0.312 L 0,-0.304 0,0 z"
             style="fill:#2d2c2e;fill-opacity:1;fill-rule:nonzero;stroke:none"
             id="path3397"
             inkscape:connector-curvature="0" /></g><g
           id="g3399"
           transform="translate(522.5137,804.6208)"><path
             d="m 0,0 c 0,0.803 -0.284,1.16 -0.854,1.16 -0.614,0 -0.977,-0.379 -1.029,-1.221 L 0,0 z m -2.614,-0.418 c 0,1.244 0.808,1.988 1.807,1.988 1.146,0 1.607,-0.789 1.607,-2.01 l -2.683,0 c 0.03,-1.039 0.523,-1.555 1.338,-1.555 0.56,0 0.869,0.107 1.153,0.205 l 0,-0.341 c -0.245,-0.144 -0.645,-0.356 -1.299,-0.356 -1.347,0 -1.923,0.864 -1.923,2.069"
             style="fill:#2d2c2e;fill-opacity:1;fill-rule:nonzero;stroke:none"
             id="path3401"
             inkscape:connector-curvature="0" /></g><g
           id="g3403"
           transform="translate(526.49001,802.88409)"><path
             d="m 0,0 0,2.654 c -0.17,0.114 -0.355,0.243 -0.816,0.243 -0.714,0 -1.215,-0.372 -1.215,-1.615 0,-1.085 0.432,-1.502 1.162,-1.502 0.361,0 0.692,0.129 0.869,0.22 m -2.754,1.19 c 0,1.441 0.807,2.116 2.024,2.116 0.306,0 0.515,-0.045 0.73,-0.106 l 0,1.206 -0.632,0.121 0,0.288 1.247,0.175 0.092,-0.039 0,-5.133 0.577,-0.122 0,-0.257 -1.153,-0.174 -0.086,0.037 0,0.394 -0.045,0 c -0.207,-0.257 -0.562,-0.446 -1.085,-0.446 -0.739,0 -1.669,0.439 -1.669,1.94"
             style="fill:#2d2c2e;fill-opacity:1;fill-rule:nonzero;stroke:none"
             id="path3405"
             inkscape:connector-curvature="0" /></g><g
           id="g3407"
           transform="translate(528.5811,807.2368)"><path
             d="M 0,0 C 0,0.234 0.2,0.424 0.439,0.424 0.686,0.424 0.878,0.234 0.878,0 0.878,-0.221 0.686,-0.425 0.439,-0.425 0.2,-0.425 0,-0.221 0,0 m -0.454,-4.755 0.57,0.122 0,2.979 -0.615,0.122 0,0.288 1.237,0.183 0.086,-0.046 0,-3.526 0.576,-0.122 0,-0.257 -1.854,0 0,0.257 z"
             style="fill:#2d2c2e;fill-opacity:1;fill-rule:nonzero;stroke:none"
             id="path3409"
             inkscape:connector-curvature="0" /></g><g
           id="g3411"
           transform="translate(532.4659,802.8764)"><path
             d="M 0,0 0,1.115 -0.785,1.054 c -0.538,-0.046 -0.706,-0.28 -0.706,-0.667 0,-0.402 0.23,-0.667 0.73,-0.667 0.314,0 0.615,0.151 0.761,0.28 m -2.214,0.311 c 0,0.675 0.491,0.903 1.207,1.046 L 0,1.562 0,1.971 c 0,0.608 -0.099,0.82 -0.884,0.82 -0.316,0 -0.762,-0.046 -1,-0.084 l 0,0.326 c 0.299,0.129 0.852,0.281 1.346,0.281 0.854,0 1.246,-0.365 1.246,-1.145 l 0,-2.237 c 0,-0.243 0.138,-0.288 0.368,-0.288 l 0.193,0 0,-0.258 C 1.177,-0.659 0.923,-0.728 0.646,-0.728 c -0.308,0 -0.515,0.114 -0.57,0.402 l -0.044,0 c -0.209,-0.219 -0.54,-0.425 -1.047,-0.425 -0.7,0 -1.199,0.403 -1.199,1.062"
             style="fill:#2d2c2e;fill-opacity:1;fill-rule:nonzero;stroke:none"
             id="path3413"
             inkscape:connector-curvature="0" /></g><g
           id="g3415"
           transform="translate(535.4816,804.787)"><path
             d="m 0,0 c 0,2.093 1.321,2.783 2.653,2.783 0.692,0 1.193,-0.09 1.523,-0.189 l 0.06,-1.297 -0.353,0 L 3.56,2.154 C 3.33,2.275 3.007,2.358 2.575,2.358 c -1.168,0 -1.76,-0.818 -1.76,-2.206 0,-1.539 0.515,-2.373 1.784,-2.373 0.376,0 0.637,0.068 0.847,0.136 l 0,1.471 -0.709,0.129 0,0.311 2.046,0 0,-0.311 -0.57,-0.129 0,-1.812 C 3.776,-2.578 3.253,-2.662 2.653,-2.662 0.999,-2.662 0,-1.903 0,0"
             style="fill:#2d2c2e;fill-opacity:1;fill-rule:nonzero;stroke:none"
             id="path3417"
             inkscape:connector-curvature="0" /></g><g
           id="g3419"
           transform="translate(540.4725,802.4823)"><path
             d="m 0,0 0.577,0.121 0,2.98 L 0,3.222 0,3.511 1.16,3.693 1.246,3.647 l 0,-0.493 0.045,0 c 0.224,0.265 0.585,0.554 1.016,0.554 0.07,0 0.176,-0.015 0.215,-0.031 l 0,-0.606 C 2.421,3.086 2.291,3.093 2.221,3.093 1.853,3.093 1.538,2.995 1.284,2.828 l 0,-2.707 L 1.915,0 1.915,-0.258 0,-0.258 0,0 z"
             style="fill:#2d2c2e;fill-opacity:1;fill-rule:nonzero;stroke:none"
             id="path3421"
             inkscape:connector-curvature="0" /></g><g
           id="g3423"
           transform="translate(546.1174,804.12)"><path
             d="m 0,0 c 0,1.236 -0.585,1.653 -1.17,1.653 -0.575,0 -1.131,-0.379 -1.131,-1.577 0,-1.229 0.578,-1.653 1.17,-1.653 C -0.553,-1.577 0,-1.198 0,0 m -3.038,0.022 c 0,1.222 0.846,2.048 1.876,2.048 1.132,0 1.9,-0.788 1.9,-2.009 0,-1.221 -0.846,-2.056 -1.876,-2.056 -1.138,0 -1.9,0.797 -1.9,2.017"
             style="fill:#2d2c2e;fill-opacity:1;fill-rule:nonzero;stroke:none"
             id="path3425"
             inkscape:connector-curvature="0" /></g><g
           id="g3427"
           transform="translate(547.556,803.2858)"><path
             d="m 0,0 0,2.351 -0.585,0.121 0,0.289 1.2,0.12 0.086,-0.045 0,-2.661 c 0,-0.546 0.145,-0.811 0.76,-0.811 0.484,0 0.738,0.12 0.97,0.219 l 0,2.768 -0.563,0.121 0,0.289 1.185,0.12 0.084,-0.045 0,-3.42 0.578,-0.121 0,-0.257 -1.153,-0.175 -0.086,0.037 0,0.425 -0.045,0 C 2.108,-0.962 1.668,-1.137 1.123,-1.137 0.331,-1.137 0,-0.697 0,0"
             style="fill:#2d2c2e;fill-opacity:1;fill-rule:nonzero;stroke:none"
             id="path3429"
             inkscape:connector-curvature="0" /></g><g
           id="g3431"
           transform="translate(554.69929,804.1808)"><path
             d="m 0,0 c 0,1.092 -0.43,1.471 -1.16,1.471 -0.363,0 -0.694,-0.114 -0.869,-0.189 l 0,-2.708 c 0.168,-0.098 0.353,-0.219 0.814,-0.219 C -0.499,-1.645 0,-1.244 0,0 m -3.306,-3.207 0.569,0.105 0,4.504 -0.578,0.122 0,0.288 1.155,0.183 0.084,-0.046 0,-0.365 0.047,0 c 0.316,0.236 0.691,0.425 1.229,0.425 0.748,0 1.523,-0.371 1.523,-1.873 0,-1.44 -0.807,-2.183 -2.021,-2.183 -0.309,0 -0.517,0.022 -0.731,0.068 l 0,-1.107 0.669,-0.121 0,-0.258 -1.946,0 0,0.258 z"
             style="fill:#2d2c2e;fill-opacity:1;fill-rule:nonzero;stroke:none"
             id="path3433"
             inkscape:connector-curvature="0" /></g><g
           id="g3435"
           transform="translate(469.5788,787.68159)"><path
             d="m 0,0 c 0,5.314 -2.945,7.555 -6.787,7.555 -4.034,0 -6.722,-2.497 -6.722,-7.427 0,-5.316 2.881,-7.556 6.722,-7.556 C -2.752,-7.428 0,-4.995 0,0 m 3.715,-25.164 c 0,3.01 -1.985,4.164 -5.636,4.164 l -10.692,0 c -2.24,-1.027 -3.522,-3.269 -3.522,-5.828 0,-3.138 2.431,-5.378 8.325,-5.378 8.068,0 11.525,3.327 11.525,7.042 m -25.42,-2.817 c 0,3.329 2.689,5.954 6.275,7.492 l 0,0.32 c -2.05,0.77 -3.459,2.304 -3.459,4.418 0,2.432 1.474,4.673 4.163,6.915 -2.817,1.665 -4.609,4.417 -4.609,8.516 0,7.235 5.697,11.14 12.614,11.14 2.304,0 4.481,-0.384 6.336,-1.152 l 9.604,1.343 0,-4.352 -6.08,0.384 c 1.663,-1.664 2.689,-3.65 2.689,-6.659 0,-7.235 -5.699,-11.077 -12.615,-11.077 -2.047,0 -4.034,0.256 -5.764,0.833 -1.214,-1.153 -1.792,-2.562 -1.792,-3.652 0,-1.088 0.77,-1.984 2.435,-1.984 l 10.948,0 c 5.25,0 9.86,-1.792 9.86,-8.067 0,-6.659 -5.953,-12.294 -17.222,-12.294 -9.67,0 -13.383,4.226 -13.383,7.876"
             style="fill:#2b3786;fill-opacity:1;fill-rule:nonzero;stroke:none"
             id="path3437"
             inkscape:connector-curvature="0" /></g><g
           id="g3439"
           transform="translate(480.9543,798.6929)"><path
             d="m 0,0 5.378,0 0,-2.818 0.321,0 c 2.752,1.858 6.338,3.457 9.987,3.457 3.713,0 6.338,-1.152 7.876,-3.648 l 0.32,0 c 3.458,2.304 7.237,3.648 10.949,3.648 5.762,0 9.092,-2.689 9.092,-9.027 l 0,-23.624 -5.633,0 0,22.407 c 0,3.778 -1.345,5.378 -5.701,5.378 -2.433,0 -5.12,-0.896 -7.938,-2.24 0.064,-0.642 0.128,-1.217 0.128,-1.921 l 0,-23.624 -5.636,0 0,22.407 c 0,3.778 -1.343,5.378 -5.697,5.378 -2.625,0 -5.443,-1.024 -7.813,-2.176 l 0,-25.609 -5.633,0 L 0,0 z"
             style="fill:#2b3786;fill-opacity:1;fill-rule:nonzero;stroke:none"
             id="path3441"
             inkscape:connector-curvature="0" /></g><g
           id="g3443"
           transform="translate(546.36929,787.68159)"><path
             d="m 0,0 c 0,5.314 -2.943,7.555 -6.786,7.555 -4.034,0 -6.723,-2.497 -6.723,-7.427 0,-5.316 2.881,-7.556 6.723,-7.556 C -2.752,-7.428 0,-4.995 0,0 m 3.714,-25.164 c 0,3.01 -1.985,4.164 -5.635,4.164 l -10.692,0 c -2.24,-1.027 -3.52,-3.269 -3.52,-5.828 0,-3.138 2.431,-5.378 8.323,-5.378 8.068,0 11.524,3.327 11.524,7.042 m -25.418,-2.817 c 0,3.329 2.688,5.954 6.274,7.492 l 0,0.32 c -2.05,0.77 -3.457,2.304 -3.457,4.418 0,2.432 1.473,4.673 4.161,6.915 -2.817,1.665 -4.61,4.417 -4.61,8.516 0,7.235 5.7,11.14 12.613,11.14 2.306,0 4.483,-0.384 6.34,-1.152 l 9.604,1.343 0,-4.352 -6.082,0.384 c 1.665,-1.664 2.689,-3.65 2.689,-6.659 0,-7.235 -5.699,-11.077 -12.614,-11.077 -2.048,0 -4.034,0.256 -5.763,0.833 -1.217,-1.153 -1.792,-2.562 -1.792,-3.652 0,-1.088 0.768,-1.984 2.433,-1.984 l 10.95,0 c 5.248,0 9.858,-1.792 9.858,-8.067 0,-6.659 -5.953,-12.294 -17.222,-12.294 -9.67,0 -13.382,4.226 -13.382,7.876"
             style="fill:#2b3786;fill-opacity:1;fill-rule:nonzero;stroke:none"
             id="path3445"
             inkscape:connector-curvature="0" /></g></g></g></g></svg>